<?xml version="1.0" encoding="UTF-8"?>
<svg version="1.1" xmlns="http://www.w3.org/2000/svg" width="656" height="323">
<path d="M0 0 C4.38888804 2.02633961 6.61298098 5.58156507 8.4022522 9.97463989 C9.49828662 13.68835392 9.36579989 17.37217832 9.29296875 21.21484375 C9.28872391 22.07058487 9.28447906 22.92632599 9.28010559 23.80799866 C9.26342789 26.5181642 9.22579705 29.22756248 9.1875 31.9375 C9.17243902 33.7844944 9.1587531 35.63150056 9.14648438 37.47851562 C9.11356026 41.98596884 9.06185469 46.49285472 9 51 C9.66 51 10.32 51 11 51 C13.47045803 47.18384532 13.43831912 43.15255752 13.625 38.75 C13.66367188 38.00492188 13.70234375 37.25984375 13.7421875 36.4921875 C13.83605108 34.6618476 13.91909718 32.83095857 14 31 C16.99684179 30.09887815 19.35147277 29.96253665 22.45678711 30.28198242 C23.33939209 30.3693869 24.22199707 30.45679138 25.13134766 30.54684448 C26.08702637 30.64869049 27.04270508 30.7505365 28.02734375 30.85546875 C29.53445923 31.00799606 29.53445923 31.00799606 31.07202148 31.16360474 C34.3612285 31.49829542 37.64931734 31.84290371 40.9375 32.1875 C43.20314841 32.41943091 45.46885531 32.6507912 47.73461914 32.8815918 C58.21316628 33.95430042 68.6871879 35.06495407 79.15625 36.2265625 C80.00175919 36.319944 80.84726837 36.4133255 81.71839905 36.50953674 C85.6173382 36.94083691 89.51527961 37.37873124 93.41186523 37.83081055 C100.96896205 38.69023022 108.38968041 39.24516872 116 39 C115.96519531 37.85402344 115.93039063 36.70804688 115.89453125 35.52734375 C115.86637297 33.99741061 115.83907501 32.46746146 115.8125 30.9375 C115.78736328 30.18533203 115.76222656 29.43316406 115.73632812 28.65820312 C115.66710713 23.32818672 116.50011703 19.72869429 119 15 C121.36136908 12.77753498 122.91469465 12.06314504 126.1484375 11.875 C130.30208537 12.09579191 132.51214581 12.6288066 135.875 15.1875 C140.45180643 21.24503792 141.43198103 25.73638154 141.29296875 33.1171875 C141.28872391 33.97434357 141.28447906 34.83149963 141.28010559 35.71463013 C141.26339886 38.43508164 141.22576219 41.15477482 141.1875 43.875 C141.17244278 45.72655175 141.1587562 47.57811519 141.14648438 49.4296875 C141.11352165 53.95341433 141.06179537 58.47657887 141 63 C141.66 63.33 142.32 63.66 143 64 C143.86419223 61.40742331 144.17580932 59.65962293 144.31640625 56.98828125 C144.35830078 56.23095703 144.40019531 55.47363281 144.44335938 54.69335938 C144.48267578 53.90767578 144.52199219 53.12199219 144.5625 52.3125 C144.62727539 51.11657227 144.62727539 51.11657227 144.69335938 49.89648438 C144.79927368 47.93118553 144.90012551 45.96561504 145 44 C155.78974532 43.35547981 165.22856932 44.98232706 173.96484375 51.59765625 C179.81849115 58.50743197 181.74874068 65.47622223 181.5234375 74.37109375 C181.51873444 75.33290054 181.51403137 76.29470734 181.50918579 77.28565979 C181.4880436 80.33703373 181.43170902 83.38660331 181.375 86.4375 C181.35845619 88.44724857 181.3441177 90.45701656 181.33203125 92.46679688 C181.22985037 104.66547792 180.75205804 116.82505569 180 129 C175.05 129 170.1 129 165 129 C163.04612336 125.09224671 162.65237766 123.00312413 162.375 118.75 C162.30023438 117.67234375 162.22546875 116.5946875 162.1484375 115.484375 C162.07496094 114.25460938 162.07496094 114.25460938 162 113 C160.40406006 112.88724731 160.40406006 112.88724731 158.77587891 112.7722168 C154.63390158 112.47877468 150.49221507 112.18136927 146.35058594 111.88305664 C144.5944724 111.75705817 142.838292 111.63198633 141.08203125 111.50805664 C128.82204217 110.64201671 116.57874147 109.62733586 104.33712196 108.53351974 C82.240206 106.56067374 60.13320607 104.70486112 38.0267601 102.84240437 C30.49365638 102.20772848 22.96073182 101.57100667 15.4280327 100.93154603 C9.40219587 100.42018577 3.37609321 99.91202804 -2.65011024 99.4050045 C-5.18708902 99.19108816 -7.72398501 98.97618757 -10.26079369 98.76026344 C-13.78065257 98.46088636 -17.30080149 98.16517731 -20.82104492 97.87036133 C-21.85520035 97.78156708 -22.88935577 97.69277283 -23.95484924 97.60128784 C-24.91662079 97.52148178 -25.87839233 97.44167572 -26.86930847 97.35945129 C-27.69624301 97.28960431 -28.52317755 97.21975733 -29.37517071 97.14779377 C-32.58670026 96.96696523 -35.78411381 96.97727599 -39 97 C-38.93954783 121.9992233 -38.86210661 146.99834359 -38.76428509 171.99744987 C-38.71926639 183.60424773 -38.67986586 195.21101449 -38.65356445 206.81787109 C-38.63063344 216.93113778 -38.59729064 227.04430653 -38.55129844 237.15749562 C-38.52729993 242.51531958 -38.50861471 247.87304616 -38.50238609 253.2309227 C-38.49636508 258.26896478 -38.47647425 263.30675748 -38.44572449 268.34470749 C-38.43689613 270.19829074 -38.43323151 272.05190651 -38.43499184 273.90550995 C-38.43663134 276.42744206 -38.42006006 278.94860181 -38.39872742 281.47042847 C-38.40357499 282.21166486 -38.40842257 282.95290125 -38.41341704 283.71659935 C-38.41712527 285.96241205 -38.41712527 285.96241205 -38 289 C-34.19084652 291.53943565 -31.34744699 291.13290823 -26.96337891 290.9074707 C-26.13993012 290.87350504 -25.31648134 290.83953938 -24.46807957 290.80454445 C-21.72035773 290.68852376 -18.97358614 290.5572321 -16.2265625 290.42578125 C-14.28993894 290.34058573 -12.3532771 290.25625654 -10.4165802 290.17274475 C-5.2265139 289.94604171 -0.03716155 289.70571012 5.1521492 289.46239471 C9.44553281 289.26270954 13.73925266 289.07087559 18.03299046 288.87898254 C44.25746428 287.70548452 70.47033593 286.39329016 96.67485046 284.834198 C97.64066544 284.77676422 98.60648041 284.71933044 99.6015625 284.66015625 C100.54139481 284.60425323 101.48122711 284.54835022 102.44953918 284.49075317 C113.44135449 283.84465428 124.4384906 283.31894226 135.4375 282.8125 C136.34460724 282.76961853 137.25171448 282.72673706 138.18630981 282.68255615 C148.4675319 282.19898784 158.70497821 281.87616762 169 282 C169 282.66 169 283.32 169 284 C153.54575229 287.2767051 138.0642521 290.36876672 122.54541016 293.32324219 C116.73954839 294.43148133 110.93604466 295.55187232 105.13290405 296.67425537 C103.79898518 296.93217947 102.46502143 297.18987155 101.13101196 297.44732666 C94.71768512 298.68515135 88.30632186 299.92954751 81.90625 301.234375 C80.54862549 301.51075806 80.54862549 301.51075806 79.16357422 301.79272461 C77.54984915 302.12313629 75.93680456 302.45690272 74.32470703 302.79516602 C70.78337268 303.52143967 67.31222457 304.09109263 63.7109375 304.41796875 C60.20395592 304.77257797 56.93226619 305.4761967 53.52563477 306.37646484 C47.01961109 308.03419616 40.4774598 309.32907367 33.87890625 310.55859375 C32.65832016 310.78901871 31.43773407 311.01944366 30.18016052 311.2568512 C26.30822389 311.98705716 22.43539687 312.71240616 18.5625 313.4375 C14.73385384 314.15796111 10.90539389 314.8794061 7.07693481 315.6008606 C4.58257682 316.07029988 2.08801058 316.53863413 -0.4067688 317.00582886 C-6.02682024 318.05870366 -11.64445746 319.12056445 -17.25537109 320.22119141 C-18.21016861 320.40738541 -19.16496613 320.59357941 -20.1486969 320.78541565 C-21.88562005 321.12516927 -23.62181633 321.46867394 -25.35704041 321.81700134 C-35.57035779 323.80881512 -45.89168568 324.96084663 -55 319 C-62.83769116 313.37111271 -68.05611606 306.55791803 -70 297 C-70.27960283 293.63741254 -70.27445057 290.29038234 -70.26069641 286.91763306 C-70.26643473 285.41748124 -70.26643473 285.41748124 -70.27228898 283.88702333 C-70.28258783 280.54393177 -70.2786327 277.20101295 -70.2746582 273.85791016 C-70.2790064 271.45771628 -70.2841899 269.0575238 -70.29014587 266.65733337 C-70.30214549 260.81919908 -70.30468864 254.98111834 -70.30234561 249.1429732 C-70.30056037 244.39588171 -70.3023165 239.64880415 -70.30657005 234.90171432 C-70.30716524 234.22529776 -70.30776043 233.54888119 -70.30837366 232.85196715 C-70.30958545 231.47768447 -70.31079958 230.10340179 -70.31201603 228.72911911 C-70.32288522 215.84935787 -70.32073206 202.96962283 -70.31463119 190.08986013 C-70.30946297 178.31757425 -70.32071603 166.54537115 -70.33972941 154.77310164 C-70.35912058 142.67378597 -70.36736154 130.57450943 -70.36360615 118.47517812 C-70.361696 111.68696263 -70.36416351 104.89881757 -70.37832069 98.11061478 C-70.39089646 91.7264435 -70.38895711 85.34243786 -70.37590981 78.95826912 C-70.37354394 76.61738466 -70.37627904 74.27648855 -70.38453293 71.93561745 C-70.39500092 68.73566454 -70.3868988 65.53626735 -70.3742218 62.33633423 C-70.38159609 61.41404231 -70.38897037 60.49175039 -70.39656812 59.54151022 C-70.31521027 49.75317542 -67.52431136 42.29187741 -61 35 C-53.76091267 27.92178128 -45.12795375 24.75710996 -35.1484375 24.83203125 C-28.72844097 25.17453727 -22.36429308 26.11563173 -16 27 C-16.02094727 26.42556152 -16.04189453 25.85112305 -16.06347656 25.25927734 C-16.14713764 22.63136626 -16.1988146 20.0037361 -16.25 17.375 C-16.28351562 16.47136719 -16.31703125 15.56773438 -16.3515625 14.63671875 C-16.43753164 8.74783271 -15.91882074 5.48487262 -12 1 C-8.26380019 -0.8680999 -4.06857253 -0.54372628 0 0 Z " fill="#5C1157" transform="translate(70,0)"/>
<path d="M0 0 C5.17369157 -0.10006396 10.34680047 -0.17202268 15.52124023 -0.21972656 C17.27557202 -0.23964572 19.02983916 -0.26679134 20.78393555 -0.30175781 C32.73316801 -0.53371551 43.87045191 -0.54309248 54.31640625 6.11328125 C63.56617639 15.17001271 67.17440422 23.30200462 67.33032227 36.29345703 C67.23888993 49.21672844 66.99436351 59.24410862 57.37890625 68.875 C46.35703175 78.72048395 33.17641815 79.48291064 18.97509766 79.28125 C16.71109933 79.24945367 14.44779558 79.24020181 12.18359375 79.234375 C1.16444219 79.16444219 1.16444219 79.16444219 0 78 C-0.09498646 75.56603981 -0.12558417 73.16057048 -0.11352539 70.72631836 C-0.11367142 69.96539383 -0.11381744 69.2044693 -0.1139679 68.42048645 C-0.11326862 65.89357702 -0.10547555 63.36674038 -0.09765625 60.83984375 C-0.09579212 59.0924941 -0.0943682 57.34514393 -0.09336853 55.59779358 C-0.08954293 50.98968066 -0.07971229 46.38159905 -0.06866455 41.77349854 C-0.05845134 37.07491479 -0.0538711 32.37632601 -0.04882812 27.67773438 C-0.03809005 18.45180913 -0.02101313 9.22590716 0 0 Z M16 14 C16 30.5 16 47 16 64 C31.15657957 65.02959191 31.15657957 65.02959191 44.01953125 59.3359375 C49.95158888 53.27098245 51.00804264 47.22655008 51.25 39 C51.0623639 31.44764695 49.96939544 24.93566678 45 19 C35.05588433 11.49117797 31.22052447 14 16 14 Z " fill="#3A3839" transform="translate(243,158)"/>
<path d="M0 0 C6.19945043 5.64838817 9.5563219 11.09735702 10.3125 19.453125 C10.81656094 35.01600658 5.01022841 46.68359407 -5.47363281 57.94506836 C-6.52616134 59.05792159 -7.58147069 60.16815183 -8.63964844 61.27563477 C-12.66455413 65.51739408 -16.02532219 69.95087582 -19 75 C-17.88238281 74.75443359 -17.88238281 74.75443359 -16.7421875 74.50390625 C-11.52737426 73.8017028 -6.37979269 73.89543577 -1.125 73.9375 C0.47988281 73.94426758 0.47988281 73.94426758 2.1171875 73.95117188 C4.74481589 73.96290236 7.37241531 73.98083609 10 74 C10 79.61 10 85.22 10 91 C5.79756565 92.05060859 1.80039326 92.32637575 -2.5 92.53515625 C-3.74728882 92.59962196 -3.74728882 92.59962196 -5.01977539 92.66539001 C-6.78147849 92.75548834 -8.54328305 92.84362108 -10.30517578 92.92993164 C-12.96286076 93.06067298 -15.62008544 93.19877621 -18.27734375 93.33789062 C-27.19063569 93.79291317 -36.0717386 94.15311424 -45 94 C-45.57895422 78.734907 -36.85448545 66.46878445 -27 55.65234375 C-25.48121433 54.01574007 -23.95190937 52.39017152 -22.41430664 50.77124023 C-14.28685541 42.17152354 -6.49822471 33.76951714 -6.73828125 21.37890625 C-7.07734072 18.29700751 -8.01395965 16.36797119 -10 14 C-13.21007611 12.39496194 -16.51767308 12.53016224 -20 13 C-22.83709414 14.71718856 -23.73427696 16.11272941 -24.6796875 19.26953125 C-25.19405261 21.50666718 -25.63211421 23.73459806 -26 26 C-28.25056722 25.88566637 -30.50046674 25.75813564 -32.75 25.625 C-34.00296875 25.55539063 -35.2559375 25.48578125 -36.546875 25.4140625 C-39.60998121 25.04676696 -41.41974266 24.60288714 -44 23 C-42.82541466 13.62084837 -40.76407762 5.7249816 -33.1875 -0.4375 C-23.67696886 -6.80142418 -9.31478404 -7.10380233 0 0 Z " fill="#3A3839" transform="translate(160,151)"/>
<path d="M0 0 C5.99408339 3.00371662 9.68676092 8.37196644 12.10546875 14.47265625 C18.55686658 34.33739201 19.08011485 61.50687043 10.44140625 80.73828125 C7.46747008 85.76423338 3.43931689 89.52543604 -2.12109375 91.37890625 C-8.33467768 91.88613759 -13.91003448 92.16876754 -19.12109375 88.37890625 C-27.43086467 81.24055678 -29.88542924 71.50510263 -30.93798828 60.92944336 C-32.30053239 41.95011226 -33.16035221 20.93779394 -22.24609375 4.56640625 C-16.33425032 -1.51931493 -8.00055549 -2.34270409 0 0 Z M-11.24609375 15.81640625 C-16.73754948 23.32139575 -15.42842498 34.10703132 -15.38183594 42.99926758 C-15.37110338 45.43921677 -15.38178115 47.87843237 -15.39453125 50.31835938 C-15.39320972 51.89192868 -15.39064747 53.46549754 -15.38671875 55.0390625 C-15.39076721 55.75699478 -15.39481567 56.47492706 -15.39898682 57.21461487 C-15.33207006 64.55017721 -14.32164551 70.83165104 -9.12109375 76.37890625 C-6.74875764 76.34110327 -6.74875764 76.34110327 -4.12109375 75.37890625 C1.08176324 69.16438262 1.03788081 62.80843891 1.08203125 55.015625 C1.09058136 53.82849663 1.09058136 53.82849663 1.0993042 52.61738586 C1.10871127 50.94912027 1.11527101 49.28083646 1.11914062 47.61254883 C1.128837 45.08446226 1.15989679 42.55719283 1.19140625 40.02929688 C1.62471316 27.14568374 1.62471316 27.14568374 -3.47558594 15.65893555 C-6.25801924 13.49449967 -8.45700571 13.92967022 -11.24609375 15.81640625 Z " fill="#3A3839" transform="translate(210.12109375,150.62109375)"/>
<path d="M0 0 C4.95 0 9.9 0 15 0 C15 33.99 15 67.98 15 103 C10 104 10 104 -4 104 C-4.495 68.36 -4.495 68.36 -5 32 C-7.97 34.31 -10.94 36.62 -14 39 C-17.21484375 40.77734375 -17.21484375 40.77734375 -19.9375 41.9375 C-20.85402344 42.33839844 -21.77054688 42.73929688 -22.71484375 43.15234375 C-25 44 -25 44 -27 44 C-27 37.4 -27 30.8 -27 24 C-25.185 23.154375 -23.37 22.30875 -21.5 21.4375 C-13.20299182 17.24512219 -8.16633967 13.39203269 -3.9375 5.0625 C-2.638125 3.391875 -1.33875 1.72125 0 0 Z " fill="#3A3839" transform="translate(77,143)"/>
<path d="M0 0 C2.99137936 2.28517399 4.55099542 4.84581159 5.75390625 8.33984375 C6.36768618 12.98358794 6.44991763 17.59751207 6.50390625 22.27734375 C6.53355469 23.53353516 6.56320312 24.78972656 6.59375 26.08398438 C6.66413821 29.16933429 6.71699127 32.25394198 6.75390625 35.33984375 C8.40390625 35.66984375 10.05390625 35.99984375 11.75390625 36.33984375 C12.24890625 41.28984375 12.24890625 41.28984375 12.75390625 46.33984375 C9.03368396 48.1999549 4.80360387 47.92191038 0.75390625 47.33984375 C-1.76657108 45.9263996 -3.22792242 44.46423463 -5.24609375 42.33984375 C-6.17421875 43.14421875 -7.10234375 43.94859375 -8.05859375 44.77734375 C-11.08158344 47.39726815 -13.38134459 48.25506442 -17.43359375 48.65234375 C-22.69220462 48.22131007 -27.02273362 46.79986406 -30.640625 42.796875 C-33.54076879 38.31856109 -33.91214191 34.58497304 -33.24609375 29.33984375 C-30.79027314 24.23173689 -27.45742475 21.40035228 -22.24609375 19.33984375 C-19.15158061 18.47802986 -16.05791502 17.72818083 -12.91796875 17.05078125 C-10.04878887 16.44093453 -10.04878887 16.44093453 -7.24609375 14.33984375 C-7.24609375 13.01984375 -7.24609375 11.69984375 -7.24609375 10.33984375 C-12.32809927 10.13241495 -16.45462553 10.58911498 -21.24609375 12.33984375 C-22.95530964 13.88107495 -22.95530964 13.88107495 -24.24609375 15.33984375 C-25.23609375 15.33984375 -26.22609375 15.33984375 -27.24609375 15.33984375 C-28.6328125 13.58984375 -28.6328125 13.58984375 -29.93359375 11.33984375 C-30.37058594 10.59734375 -30.80757813 9.85484375 -31.2578125 9.08984375 C-31.74701172 8.22359375 -31.74701172 8.22359375 -32.24609375 7.33984375 C-22.87882119 -1.70542882 -12.57669993 -4.15601531 0 0 Z M-13.30859375 25.33984375 C-14.41332031 25.71109375 -15.51804687 26.08234375 -16.65625 26.46484375 C-17.93822266 26.89796875 -17.93822266 26.89796875 -19.24609375 27.33984375 C-20.39758391 31.93064078 -20.39758391 31.93064078 -19.18359375 36.27734375 C-16.28289431 37.8680499 -14.50692695 37.86157706 -11.24609375 37.33984375 C-8.18531136 35.52988258 -8.18531136 35.52988258 -6.24609375 32.33984375 C-5.84333089 29.29108187 -5.94660296 26.39464979 -6.24609375 23.33984375 C-8.58528429 23.33984375 -11.13317208 24.60707013 -13.30859375 25.33984375 Z " fill="#3A3839" transform="translate(344.24609375,188.66015625)"/>
<path d="M0 0 C12.54 0 25.08 0 38 0 C38 3.63 38 7.26 38 11 C29.75 11 21.5 11 13 11 C13 15.29 13 19.58 13 24 C20.26 24 27.52 24 35 24 C35 27.63 35 31.26 35 35 C27.74 35 20.48 35 13 35 C13 42.92 13 50.84 13 59 C8.71 59 4.42 59 0 59 C0 39.53 0 20.06 0 0 Z " fill="#3A3839" transform="translate(448,177)"/>
<path d="M0 0 C3.63 0 7.26 0 11 0 C15.20150555 8.10290356 18.56357573 16.19221844 21 25 C21.2673999 24.27820557 21.5347998 23.55641113 21.81030273 22.81274414 C23.01653593 19.56160355 24.22695944 16.31203908 25.4375 13.0625 C25.85837891 11.92619141 26.27925781 10.78988281 26.71289062 9.61914062 C27.11572266 8.53955078 27.51855469 7.45996094 27.93359375 6.34765625 C28.30540771 5.34742432 28.67722168 4.34719238 29.06030273 3.31665039 C30 1 30 1 31 0 C32.85287502 -0.07226502 34.70833878 -0.0838122 36.5625 -0.0625 C37.57441406 -0.05347656 38.58632813 -0.04445312 39.62890625 -0.03515625 C40.41136719 -0.02355469 41.19382812 -0.01195312 42 0 C40.23569966 5.58695107 38.21507207 11.01472074 36 16.4375 C34.30273427 20.59800862 32.70179403 24.72745725 31.5 29.0625 C28.91551896 38.15379214 25.32194833 47.86754548 19 55 C15.19545049 56.94819173 12.05529387 57.24547607 7.8125 57.1875 C6.76707031 57.18105469 5.72164063 57.17460937 4.64453125 57.16796875 C2 57 2 57 0 56 C0.66 52.7 1.32 49.4 2 46 C3.2375 46.04125 4.475 46.0825 5.75 46.125 C8.98240068 46.11355787 11.38281448 46.09374842 14 44 C14.96890088 41.55235591 15.09571794 40.31997342 14.33496094 37.77685547 C13.7901709 36.58406982 13.7901709 36.58406982 13.234375 35.3671875 C12.83863281 34.47773438 12.44289063 33.58828125 12.03515625 32.671875 C11.61105469 31.74890625 11.18695313 30.8259375 10.75 29.875 C7.63007636 23.00526277 5.03607164 16.26607735 3 9 C2.44830222 7.28814762 1.88948989 5.57849397 1.3125 3.875 C0.879375 2.59625 0.44625 1.3175 0 0 Z " fill="#3A3839" transform="translate(354,192)"/>
<path d="M0 0 C0.75087891 -0.02449219 1.50175781 -0.04898438 2.27539062 -0.07421875 C6.327257 -0.09560063 8.12396936 0.08264624 11.59765625 2.3984375 C12.57025391 3.37683594 12.57025391 3.37683594 13.5625 4.375 C13.25631595 8.04920866 12.80478216 9.15635513 10 11.6875 C9.195625 12.244375 8.39125 12.80125 7.5625 13.375 C6.881875 12.88 6.20125 12.385 5.5 11.875 C1.96784991 10.07134889 -0.52386991 10.14478647 -4.4375 10.375 C-4.7675 11.695 -5.0975 13.015 -5.4375 14.375 C-4.71304687 14.48457031 -3.98859375 14.59414062 -3.2421875 14.70703125 C8.50469544 16.63352005 8.50469544 16.63352005 13.375 21 C15.49919167 25.24838334 16.03983078 29.72936877 15.1953125 34.41015625 C14.03477719 37.78430522 12.62240283 39.3346307 9.6875 41.3125 C2.40066733 43.82948698 -6.39519909 43.2771015 -13.4375 40.375 C-16.3125 37.75 -16.3125 37.75 -18.4375 35.375 C-16.99672954 32.01320226 -15.18999979 29.78343732 -12.4375 27.375 C-11.7775 27.375 -11.1175 27.375 -10.4375 27.375 C-9.633125 28.3340625 -9.633125 28.3340625 -8.8125 29.3125 C-5.11690877 32.52182922 -1.27869197 32.375 3.5625 32.375 C3.5625 30.725 3.5625 29.075 3.5625 27.375 C2.91023438 27.26542969 2.25796875 27.15585938 1.5859375 27.04296875 C-4.77857064 25.88834559 -9.87419949 24.66847941 -14.8125 20.25 C-17.08505852 16.22931955 -17.2328857 12.89279077 -16.4375 8.375 C-12.50327181 0.64705177 -8.21687147 0.01403394 0 0 Z " fill="#3A3839" transform="translate(412.4375,196.625)"/>
<path d="M0 0 C3.38655411 3.30189026 4.9212173 6.04364776 5.11352539 10.8190918 C5.10828857 11.93453369 5.10305176 13.04997559 5.09765625 14.19921875 C5.09443359 15.40771484 5.09121094 16.61621094 5.08789062 17.86132812 C5.07532227 19.7552832 5.07532227 19.7552832 5.0625 21.6875 C5.05798828 22.96173828 5.05347656 24.23597656 5.04882812 25.54882812 C5.03702873 28.69926564 5.02056597 31.84960949 5 35 C1.7 35 -1.6 35 -5 35 C-5.33 26.09 -5.66 17.18 -6 8 C-9.3 8.33 -12.6 8.66 -16 9 C-16.33 17.58 -16.66 26.16 -17 35 C-20.63 35 -24.26 35 -28 35 C-28 23.12 -28 11.24 -28 -1 C-24.7 -1 -21.4 -1 -18 -1 C-17.34 -0.34 -16.68 0.32 -16 1 C-15.030625 0.46375 -14.06125 -0.0725 -13.0625 -0.625 C-8.44999401 -2.59375256 -4.54130485 -1.95882201 0 0 Z " fill="#3A3839" transform="translate(534,201)"/>
<path d="M0 0 C3.88639087 3.25955363 3.88639087 3.25955363 4.20874023 5.56445312 C4.22106689 6.33724609 4.23339355 7.11003906 4.24609375 7.90625 C4.27123047 8.74800781 4.29636719 9.58976563 4.32226562 10.45703125 C4.35742043 12.23560419 4.38867089 14.01425859 4.41601562 15.79296875 C4.44244141 16.63472656 4.46886719 17.47648437 4.49609375 18.34375 C4.50954834 19.11654297 4.52300293 19.88933594 4.53686523 20.68554688 C4.78443493 23.03041216 4.78443493 23.03041216 7.9375 24.625 C8.125 28.25 8.125 28.25 7.9375 31.625 C5.25 32.3125 5.25 32.3125 1.9375 32.625 C0.26733484 31.63085407 -1.39970673 30.6314275 -3.0625 29.625 C-5.27984114 30.2751992 -5.27984114 30.2751992 -7.0625 31.625 C-10.12679776 33.15714888 -12.6790642 32.85438548 -16.0625 32.625 C-19.22864383 31.28818372 -20.64624759 30.3061403 -22.4375 27.375 C-23.27063901 23.70918834 -23.03619633 21.26013295 -22.0625 17.625 C-18.15264247 11.89054229 -12.49297118 11.01019782 -6.0625 9.625 C-6.0625 8.965 -6.0625 8.305 -6.0625 7.625 C-11.02801325 7.26893187 -11.02801325 7.26893187 -15.5 9.125 C-16.015625 9.62 -16.53125 10.115 -17.0625 10.625 C-19 9.9375 -19 9.9375 -21.0625 8.625 C-21.8125 6 -21.8125 6 -22.0625 3.625 C-15.64042243 -1.75565958 -7.94057621 -3.56515667 0 0 Z M-10.125 17.125 C-11.22521484 17.54265625 -11.22521484 17.54265625 -12.34765625 17.96875 C-12.91355469 18.1853125 -13.47945312 18.401875 -14.0625 18.625 C-14.105221 20.29111905 -14.10313832 21.95882885 -14.0625 23.625 C-13.7325 23.955 -13.4025 24.285 -13.0625 24.625 C-8.7215631 24.48341338 -8.7215631 24.48341338 -5.0625 22.625 C-5.02157063 20.29202567 -5.02008277 17.95794775 -5.0625 15.625 C-6.85131237 15.625 -8.4708068 16.49483116 -10.125 17.125 Z " fill="#3A3839" transform="translate(565.0625,204.375)"/>
<path d="M0 0 C2.64 0 5.28 0 8 0 C8.33 0.99 8.66 1.98 9 3 C9.474375 2.505 9.94875 2.01 10.4375 1.5 C14.22155914 -0.71505901 17.71551811 -0.7102617 22 0 C24.87029869 1.79393668 26.49131638 2.98263276 28 6 C28.08510205 7.9593604 28.10717656 9.92162794 28.09765625 11.8828125 C28.09443359 13.04941406 28.09121094 14.21601563 28.08789062 15.41796875 C28.07951172 16.64128906 28.07113281 17.86460937 28.0625 19.125 C28.05798828 20.35605469 28.05347656 21.58710938 28.04882812 22.85546875 C28.0370133 25.90369392 28.02054028 28.95182314 28 32 C21.84765625 32.09765625 21.84765625 32.09765625 20 32 C19 31 19 31 18.88647461 28.77514648 C18.89171143 27.81680908 18.89694824 26.85847168 18.90234375 25.87109375 C18.90556641 24.83662109 18.90878906 23.80214844 18.91210938 22.73632812 C18.92048828 21.64771484 18.92886719 20.55910156 18.9375 19.4375 C18.94201172 18.34501953 18.94652344 17.25253906 18.95117188 16.12695312 C18.96300174 13.41791505 18.97948457 10.70898401 19 8 C14.91441294 7.59892142 14.91441294 7.59892142 11.33056641 9.22216797 C9.6414519 11.47907289 9.59149038 12.83157878 9.5234375 15.6328125 C9.47703125 16.96505859 9.47703125 16.96505859 9.4296875 18.32421875 C9.41164063 19.24847656 9.39359375 20.17273438 9.375 21.125 C9.32421025 22.96104946 9.2697262 24.79700175 9.2109375 26.6328125 C9.19337402 27.44637207 9.17581055 28.25993164 9.15771484 29.09814453 C9 31 9 31 8 32 C4.5 32.125 4.5 32.125 1 32 C0 31 0 31 -0.11352539 28.04077148 C-0.10828857 26.74727783 -0.10305176 25.45378418 -0.09765625 24.12109375 C-0.0962413 23.4344313 -0.09482635 22.74776886 -0.09336853 22.04029846 C-0.08775479 19.83932199 -0.07520007 17.63844591 -0.0625 15.4375 C-0.05748676 13.94856917 -0.05292355 12.45963676 -0.04882812 10.97070312 C-0.03778093 7.31376925 -0.02050713 3.65689442 0 0 Z " fill="#3A3839" transform="translate(577,206)"/>
<path d="M0 0 C2.82424288 2.19022918 4.41508603 3.83017207 6 7 C6.125 10.5625 6.125 10.5625 6 14 C5 15 5 15 1.83984375 15.09765625 C-0.09181641 15.08025391 -0.09181641 15.08025391 -2.0625 15.0625 C-3.35285156 15.05347656 -4.64320313 15.04445312 -5.97265625 15.03515625 C-6.97167969 15.02355469 -7.97070312 15.01195312 -9 15 C-9 15.99 -9 16.98 -9 18 C-4.24272846 18.29471264 -4.24272846 18.29471264 0.1875 16.875 C0.785625 16.58625 1.38375 16.2975 2 16 C4.25 16.875 4.25 16.875 6 18 C5.09126425 21.05665662 4.32469175 22.72305703 1.875 24.8125 C-1.83052792 26.34304414 -5.08486802 26.68189187 -9 26 C-12.67291762 24.23155818 -14.47736359 22.95437954 -16.4375 19.375 C-17.398646 13.608124 -17.32002109 7.02314879 -14 2 C-9.76764876 -0.84887298 -4.90808464 -0.80213034 0 0 Z M-7 5 C-7.66 6.32 -8.32 7.64 -9 9 C-6.36 9 -3.72 9 -1 9 C-1.66 7.68 -2.32 6.36 -3 5 C-4.32 5 -5.64 5 -7 5 Z " fill="#3A3839" transform="translate(650,211)"/>
<path d="M0 0 C3 2.0625 3 2.0625 5 4 C4.3125 5.9375 4.3125 5.9375 3 8 C0.375 8.75 0.375 8.75 -2 9 C-2.33 8.34 -2.66 7.68 -3 7 C-5.41619823 6.74969023 -5.41619823 6.74969023 -8 7 C-10.16617415 10.24926122 -10.21335669 10.5985242 -9.625 14.1875 C-9.41875 15.445625 -9.2125 16.70375 -9 18 C-7.31026274 18.88556744 -7.31026274 18.88556744 -5 19 C-1.76238866 17.14749996 -1.76238866 17.14749996 1 15 C2.65 15.99 4.3 16.98 6 18 C4.57824371 21.55439073 3.48452116 23.64237724 0.375 25.9375 C-4.04951867 27.33040403 -7.53751004 27.21629561 -12 26 C-16.582365 23.23148781 -16.582365 23.23148781 -17.609375 20.203125 C-18.56478814 14.81459491 -18.77273994 9.18185396 -16.9375 4 C-11.87118033 -1.22974934 -6.66061457 -1.61143901 0 0 Z " fill="#3A3839" transform="translate(626,208)"/>
<path d="M0 0 C3.3 0 6.6 0 10 0 C10 12.54 10 25.08 10 38 C6.7 38 3.4 38 0 38 C0 25.46 0 12.92 0 0 Z " fill="#3A3839" transform="translate(490,196)"/>
<path d="M0 0 C2 2 2 2 2.3125 4.9375 C2 8 2 8 0.9375 9.875 C-2.09814371 11.63763183 -4.57798172 11.37331109 -8 11 C-10.31282587 7.53076119 -10.42478586 6.07794425 -10 2 C-7.65131237 -2.28290097 -4.2151329 -0.99630414 0 0 Z " fill="#393839" transform="translate(499,181)"/>
<path d="M0 0 C-2 2 -2 2 -4 2.875 C-6.42021404 4.2363704 -6.98618622 5.46546555 -8 8 C-8.33 8 -8.66 8 -9 8 C-9.25 5.6875 -9.25 5.6875 -9 3 C-6.19926731 -0.00819437 -4.01012625 -0.33417719 0 0 Z " fill="#6D1668" transform="translate(197,13)"/>
</svg>
